<?xml version="1.0" encoding="utf-8"?>
<!-- Generator: Adobe Illustrator 23.0.3, SVG Export Plug-In . SVG Version: 6.00 Build 0)  -->
<svg version="1.1" xmlns="http://www.w3.org/2000/svg" xmlns:xlink="http://www.w3.org/1999/xlink" x="0px" y="0px"
	 viewBox="0 0 3051 2212" style="enable-background:new 0 0 3051 2212;" xml:space="preserve">
<style type="text/css">
	.st0{display:none;}
	.st1{display:inline;}
	.st2{display:inline;fill:#FFFFFF;}
	.st3{fill:#F57A12;}
	.st4{fill:#FFFFFF;}
	.st5{display:none;fill:#403034;}
</style>
<g id="branco" class="st0">
	<rect id="fundo" x="-176.35" y="120.71" class="st1" width="3789.38" height="2409.24"/>
	<g id="Layer_3_copy">
		<polygon class="st2" points="6.67,2132 110,2132 781.67,660 1553.67,1390 2327.67,658.67 2944.33,2132 3046.33,2132 
			2364.33,494.67 1554.33,1258.67 743.4,494.67 		"/>
		<polygon class="st2" points="1554.33,258 1231.67,908 1315.67,986 1554.33,514 1791.67,986 1875.67,908 		"/>
		<polygon class="st2" points="1149.67,1060 625.67,2132 751.67,2132 1231.67,1136 		"/>
		<polygon class="st2" points="1959.67,1060 2481.67,2132 2355.67,2132 1875.67,1134 		"/>
	</g>
</g>
<g id="preto" class="st0">
	<polygon class="st1" points="6.67,2132 110,2132 781.67,660 1553.67,1390 2327.67,658.67 2944.33,2132 3046.33,2132 
		2364.33,494.67 1554.33,1258.67 743.4,494.67 	"/>
	<polygon class="st1" points="1554.33,258 1231.67,908 1315.67,986 1554.33,514 1791.67,986 1875.67,908 	"/>
	<polygon class="st1" points="1149.67,1060 625.67,2132 751.67,2132 1231.67,1136 	"/>
	<polygon class="st1" points="1959.67,1060 2481.67,2132 2355.67,2132 1875.67,1134 	"/>
</g>
<g id="cores">
	<g id="Layer_3">
		<polygon class="st3" points="6.67,2132 110,2132 781.67,660 1553.67,1390 2327.67,658.67 2944.33,2132 3046.33,2132 
			2364.33,494.67 1554.33,1258.67 743.4,494.67 		"/>
		<polygon class="st4" points="1553.67,140 1229.96,907.45 1317.46,987.31 1554.84,425.09 1791.67,986 1879,905.18 		"/>
		<polygon class="st5" points="1149.67,1060 625.67,2132 751.67,2132 1231.67,1136 		"/>
		<polygon class="st4" points="1946.61,1070.66 2396.97,2131.98 2274.84,2132 1861.07,1153.1 		"/>
		<polygon class="st4" points="1161.77,1070.16 711.4,2131.47 833.54,2131.5 1247.3,1152.59 		"/>
	</g>
	<g id="Layer_6">
	</g>
</g>
</svg>
