<svg xmlns="http://www.w3.org/2000/svg" viewBox="0 0 359.67 75.79"><defs><style>.cls-1{fill:#00316d;fill-rule:evenodd;}</style></defs><title>Ativo 1</title><g id="Camada_2" data-name="Camada 2"><g id="Capa_1" data-name="Capa 1"><path class="cls-1" d="M178.91,10.07h46.67c2.22,0,3.33,1.11,3.33,2.23V30.2a3.55,3.55,0,0,1-3.33,3.35H197.8a3.55,3.55,0,0,1-3.33-3.35V28a3.55,3.55,0,0,1,3.33-3.35h16.67a2.4,2.4,0,0,0,2.22-2.24c0-2.24,0-3.36-2.22-3.36H191.13q-3.33,0-3.33,3.36V36.91C187.8,38,188.91,38,190,38h22.23c2,.34,2.22,2.23,2.22,3.35v4.48a2.4,2.4,0,0,1-2.22,2.24H178.91a2.4,2.4,0,0,1-2.22-2.24V12.3A2.39,2.39,0,0,1,178.91,10.07Z"/><path class="cls-1" d="M98.9,22.37Q98.9,19,95.57,19H73.34Q70,19,70,22.37V35.79C70,36.91,71.12,38,73.34,38H95.57c2.22,0,3.33-1.12,3.33-2.24V22.37Zm10,22.37h0c0,2.24-1.11,3.36-2.22,3.36H61.12C60,48.1,58.9,47,58.9,44.74V12.3a2.39,2.39,0,0,1,2.22-2.23h45.56a2.39,2.39,0,0,1,2.22,2.23Z"/><path class="cls-1" d="M157.8,22.37q0-3.36-3.34-3.36H131.13q-3.34,0-3.34,3.36V35.79a3.56,3.56,0,0,0,3.34,3.36h23.33a3.56,3.56,0,0,0,3.34-3.36V22.37Zm11.11,22.37h0q0,3.36-3.34,3.36H118.9c-1.11,0-2.22-1.12-2.22-3.36V12.3a2.39,2.39,0,0,1,2.22-2.23h38.9V3.36Q157.8,0,161.13,0h4.44q3.35,0,3.34,3.36Z"/><path class="cls-1" d="M47.78,38H15.56c-2.22,0-3.34-1.12-3.34-2.24V22.37A3.57,3.57,0,0,1,15.56,19H47.78c2.23,0,3.34-1.11,3.34-2.23V12.3c0-1.12-1.11-2.23-3.34-2.23H3.33C2.22,10.07,0,11.18,0,12.3V45.86C0,47,2.22,48.1,3.33,48.1H47.78c2.23,0,3.34-1.12,3.34-2.24V41.38A3.56,3.56,0,0,0,47.78,38Z"/><path class="cls-1" d="M287.81,39.15h8.89c1.11,0,2.22-1.12,2.22-3.36V15.66c0-2.24-1.11-3.36-2.22-3.36H281.14c-1.11,0-2.22,1.12-2.22,3.36V35.79c0,2.24,1.11,3.36,2.22,3.36Zm0-35.79h19.51c1.11,0,2.72,1.11,2.72,2.23V45.86c0,1.12-2.23,2.24-3.34,2.24H271.14a2.4,2.4,0,0,1-2.22-2.24V5.59a2.39,2.39,0,0,1,2.22-2.23Z"/><path class="cls-1" d="M336.71,39.15h8.89q3.33,0,3.33-3.36V15.66q0-3.36-3.33-3.36H331.15q-3.33,0-3.33,3.36V35.79q0,3.36,3.33,3.36Zm0-35.79H355.6c2.22,0,3.33,1.11,3.33,2.23V45.86c0,1.12-1.11,2.24-3.33,2.24H321.15c-2.22,0-3.34-1.12-3.34-2.24V5.59c0-1.12,1.12-2.23,3.34-2.23Z"/><path class="cls-1" d="M254.47,3.36h2.23c2.22,0,3.33,1.11,3.33,2.23V45.86c0,1.12-1.11,2.24-3.33,2.24h-4.45c-2.22,0-3.33-1.12-3.33-2.24V16.78l-7.78,4.47c-2.22,1.12-3.63,1.4-4.74-.84l-.74-1.2L235,18l-.55-1.19c-1.11-2.24,0-3.36,1.11-4.48L250,3.36h4.44Z"/><path class="cls-1" d="M15,63a7.63,7.63,0,0,0-2.44-1.84,6.68,6.68,0,0,0-2.85-.6,6.28,6.28,0,0,0-2.47.51,6.57,6.57,0,0,0-2.08,1.44A6.4,6.4,0,0,0,3.8,64.61a7,7,0,0,0-.46,2.6,7.49,7.49,0,0,0,.27,2.06A5.68,5.68,0,0,0,4.43,71,6.49,6.49,0,0,0,6.78,73.1a6.36,6.36,0,0,0,3,.74,6.29,6.29,0,0,0,2.83-.64A7.36,7.36,0,0,0,15,71.31v2.53a9,9,0,0,1-2.55,1.3,8.94,8.94,0,0,1-2.82.44,8.2,8.2,0,0,1-2.46-.37,8.48,8.48,0,0,1-2.24-1.1,8.16,8.16,0,0,1-3.57-6.88A8.67,8.67,0,0,1,2,63.87a8.35,8.35,0,0,1,4.56-4.51,8.51,8.51,0,0,1,3.23-.59,8.57,8.57,0,0,1,2.67.42A9.52,9.52,0,0,1,15,60.49V63ZM26,73.79a6.31,6.31,0,0,0,2.48-.49,6.68,6.68,0,0,0,2.12-1.45A6.49,6.49,0,0,0,32,69.71a6.76,6.76,0,0,0,0-5.08,6.68,6.68,0,0,0-3.53-3.58A6.54,6.54,0,0,0,26,60.56a6.64,6.64,0,0,0-2.51.49,6.25,6.25,0,0,0-2.1,1.44,6.61,6.61,0,0,0-1.91,4.7A6.56,6.56,0,0,0,20,69.7a6.85,6.85,0,0,0,1.43,2.15A6.74,6.74,0,0,0,23.5,73.3a6.32,6.32,0,0,0,2.49.49Zm8.5-6.6a8.53,8.53,0,0,1-.63,3.23A8.15,8.15,0,0,1,32,73.13a8.6,8.6,0,0,1-12,0A8.39,8.39,0,0,1,18.13,64,8.07,8.07,0,0,1,20,61.23a8.45,8.45,0,0,1,2.76-1.8,8.6,8.6,0,0,1,6.51,0A8.39,8.39,0,0,1,32,61.23a8.15,8.15,0,0,1,1.84,2.71,8.59,8.59,0,0,1,.63,3.25Zm3.09,8V58.52L49.21,71.31V59.15H51V75.79L39.38,63.13v12Zm17.24,0v-16H63.2V60.9H56.71v4.59H63.2v1.77H56.71v7.9Zm11.29,0v-16H68v16ZM76.87,62.73l-2.53,5.89H79.4l-2.53-5.89Zm0-4.21L84.1,75.16h-2L80,70.26H73.78l-2.07,4.9h-2l7.2-16.64Zm8.88,16.64V58.52L97.38,71.31V59.15h1.81V75.79L87.55,63.13v12Zm15.21,0,9-14.26h-7.26V59.15h10.46l-8.85,14.2h8.49v1.81ZM120.6,62.73l-2.53,5.89h5.06l-2.53-5.89Zm0-4.21,7.23,16.64h-2l-2.07-4.9h-6.2l-2.07,4.9h-2l7.21-16.64Zm18.93,16.64V67.83l-5.38-8.68h2.18l4.16,6.95,4.14-6.95h2.17l-5.38,8.68v7.33Zm21.58-8.89A5.42,5.42,0,0,1,163.45,68a4.37,4.37,0,0,1,.79,2.62,4.71,4.71,0,0,1-1.4,3.55,5.7,5.7,0,0,1-6.85.39,4.85,4.85,0,0,1-1.72-2.75L156,71a4.3,4.3,0,0,0,1.15,2.21,2.81,2.81,0,0,0,2,.75,3.29,3.29,0,0,0,2.31-.82,2.86,2.86,0,0,0,.88-2.15,3,3,0,0,0-.62-1.87,4.67,4.67,0,0,0-1.85-1.34l-1.93-.83a5.57,5.57,0,0,1-2.37-1.72,4.14,4.14,0,0,1-.77-2.51,3.56,3.56,0,0,1,1.26-2.82,4.64,4.64,0,0,1,3.21-1.12,4.87,4.87,0,0,1,2.48.61,4.08,4.08,0,0,1,1.64,1.81l-1.57,1a4,4,0,0,0-1.19-1.38,2.54,2.54,0,0,0-1.5-.46,2.38,2.38,0,0,0-1.74.66,2.22,2.22,0,0,0-.68,1.67,2.19,2.19,0,0,0,.52,1.47,4.34,4.34,0,0,0,1.62,1.11l2.27,1Zm5.65,8.89v-16h8.38V60.9h-6.49v4.59h6.49v1.77h-6.49v6.13h6.49v1.77Zm20.33-8.26h6.56v.53a8.2,8.2,0,0,1-2.13,6,7.73,7.73,0,0,1-5.81,2.18,9.3,9.3,0,0,1-2.14-.23,7.58,7.58,0,0,1-4.89-3.69,8.78,8.78,0,0,1-1.07-4.34,9.63,9.63,0,0,1,.64-3.61,7.69,7.69,0,0,1,1.92-2.84,7.07,7.07,0,0,1,2.49-1.55,9.07,9.07,0,0,1,3.16-.53,8.8,8.8,0,0,1,4,.84,7,7,0,0,1,2.79,2.52L191,63.43a5.54,5.54,0,0,0-5.12-2.91,5.79,5.79,0,0,0-4.49,1.88,6.94,6.94,0,0,0-1.73,4.92,6.51,6.51,0,0,0,1.75,4.7,5.9,5.9,0,0,0,4.47,1.84,5.64,5.64,0,0,0,4-1.46,5.52,5.52,0,0,0,1.77-3.8h-4.54V66.9Zm9.3-7.75h1.91v10a5.2,5.2,0,0,0,1,3.57,5.12,5.12,0,0,0,6.44,0,5.25,5.25,0,0,0,1-3.57v-10h1.91v10A6.77,6.77,0,0,1,207.17,74a7.45,7.45,0,0,1-9.25,0,6.81,6.81,0,0,1-1.53-4.86v-10Zm16.08,16v-16h3.74a10.91,10.91,0,0,1,2.34.18,3.53,3.53,0,0,1,1.31.62A3.64,3.64,0,0,1,221,61.44a5.2,5.2,0,0,1,.4,2.07,3.93,3.93,0,0,1-1.09,3,4.54,4.54,0,0,1-3.2,1h-.34l6.07,7.64h-2.4l-5.8-7.64h-.27v7.64Zm1.85-14.4v5.35h1.44a5.31,5.31,0,0,0,3-.57,2.37,2.37,0,0,0,.75-2,2.63,2.63,0,0,0-.77-2.16,5,5,0,0,0-3-.62Zm10.08,14.4v-16h1.89v16Zm7.65-1.79h1.2a21.37,21.37,0,0,0,4.06-.26,4.38,4.38,0,0,0,1.88-.88,5.16,5.16,0,0,0,1.49-2.11,8.11,8.11,0,0,0,.51-3,8,8,0,0,0-.51-3,5.14,5.14,0,0,0-1.49-2.1,4.47,4.47,0,0,0-1.91-.9,20.31,20.31,0,0,0-4-.27h-1.2V73.37Zm-1.92,1.79v-16h3.06a23.25,23.25,0,0,1,4.77.34,6.51,6.51,0,0,1,4.5,3.87,10.57,10.57,0,0,1,0,7.59A6.62,6.62,0,0,1,238,74.82a18.63,18.63,0,0,1-4.14.34h-3.74ZM250.9,62.73l-2.53,5.89h5.06l-2.53-5.89Zm0-4.21,7.23,16.64h-2.05L254,70.26h-6.21l-2.07,4.9h-2l7.2-16.64Zm10.79,14.85h1.2a21.3,21.3,0,0,0,4.06-.26,4.32,4.32,0,0,0,1.88-.88,5.07,5.07,0,0,0,1.49-2.11,9,9,0,0,0,0-5.93,5.25,5.25,0,0,0-1.5-2.1,4.48,4.48,0,0,0-1.9-.9,20.43,20.43,0,0,0-4-.27h-1.2V73.37Zm-1.91,1.79v-16h3.05a23.25,23.25,0,0,1,4.77.34A6.53,6.53,0,0,1,270,60.65a6.74,6.74,0,0,1,2.08,2.71,9.63,9.63,0,0,1,.7,3.81,9.48,9.48,0,0,1-.7,3.78A6.66,6.66,0,0,1,270,73.66a6.72,6.72,0,0,1-2.37,1.16,18.73,18.73,0,0,1-4.15.34h-3.73Zm24.6-1.79h1.21a21.45,21.45,0,0,0,4.06-.26,4.38,4.38,0,0,0,1.88-.88A5,5,0,0,0,293,70.12a8.11,8.11,0,0,0,.51-3,8,8,0,0,0-.5-3,5.23,5.23,0,0,0-1.49-2.1,4.52,4.52,0,0,0-1.91-.9,20.31,20.31,0,0,0-4-.27h-1.21V73.37Zm-1.91,1.79v-16h3a23.43,23.43,0,0,1,4.78.34,6.56,6.56,0,0,1,2.42,1.16,6.66,6.66,0,0,1,2.08,2.71,9.63,9.63,0,0,1,.7,3.81,9.48,9.48,0,0,1-.7,3.78,6.63,6.63,0,0,1-4.45,3.87,18.69,18.69,0,0,1-4.14.34h-3.74Zm16.15,0v-16h1.89v16ZM313.1,66.9h6.56v.53a8.2,8.2,0,0,1-2.13,6,7.73,7.73,0,0,1-5.81,2.18,9.3,9.3,0,0,1-2.14-.23,7.62,7.62,0,0,1-1.87-.71,7.53,7.53,0,0,1-3-3,8.78,8.78,0,0,1-1.07-4.34,9.63,9.63,0,0,1,.64-3.61,7.69,7.69,0,0,1,1.92-2.84,7,7,0,0,1,2.5-1.55,9,9,0,0,1,3.15-.53,8.8,8.8,0,0,1,4,.84,6.87,6.87,0,0,1,2.79,2.52L317,63.43a5.93,5.93,0,0,0-2.14-2.19,6,6,0,0,0-3-.72,5.79,5.79,0,0,0-4.49,1.88,6.94,6.94,0,0,0-1.73,4.92,6.56,6.56,0,0,0,1.75,4.7,5.9,5.9,0,0,0,4.47,1.84,5.64,5.64,0,0,0,4-1.46,5.52,5.52,0,0,0,1.77-3.8H313.1V66.9Zm9.39,8.26v-16h1.89v16Zm8.51,0V61h-4.49V59.15h10.88V61h-4.48v14.2Zm11.9-12.43-2.53,5.89h5.06l-2.53-5.89Zm0-4.21-7.2,16.64h2l2.07-4.9H346l2.06,4.9h2.05L342.9,58.52Zm8.88,16.64v-16h1.89v14.2h6v1.81Z"/></g></g></svg>